<svg version="1.1" id="Layer_1" xmlns="http://www.w3.org/2000/svg" xmlns:xlink="http://www.w3.org/1999/xlink" x="0px" y="0px"
	 viewBox="0 0 87 54.8" style="enable-background:new 0 0 87 54.8;" xml:space="preserve">
	  <style type="text/css">
	path {fill:#000000;}
	</style>
<g>
	<g id="Group_102" transform="translate(68.195 0.636)">
		<g id="Path_643">
			<path d="M-44.2,53.7h-7l-7.6-12.2l-0.8-1.5l-0.9-1.6c-0.3-0.5-0.5-1-1.3-2.7l0.2,1c0.3,1.2,0.4,2.3,0.4,3.5v13.5h-7V25.9h8.1
				l6.5,10.2c1.1,1.7,2.1,3.5,2.9,5.3c-0.4-2.4-0.7-4.8-0.7-7.3v-8.2h7L-44.2,53.7z"/>
		</g>
		<g id="Path_644">
			<path d="M-5.7,25.9l-7.4,27.7h-7.2l-3.9-15.3l-3.7,15.3h-7.5l-7.4-27.7h8.1l3.9,16l3.8-16h6.8l4.1,16l3.9-16
				C-12.2,25.9-5.7,25.9-5.7,25.9z"/>
		</g>
		<g id="Path_645">
			<path d="M18.8,38.1v15.6h-4.2l-0.2-0.5c-0.2-0.8-0.6-1.6-1-2.4c-1.9,2.3-4.7,3.5-7.7,3.3c-7.4,0-12.4-5.6-12.4-13.9
				c-0.1-3.8,1.1-7.5,3.4-10.5c2.5-2.9,6.1-4.5,9.9-4.2c5.1,0,8.9,2.1,10.8,6c0.6,1.2,1,2.4,1.2,3.7L10.3,36c-0.5-3-1.7-4.3-3.8-4.3
				c-2.9,0-4.2,2.6-4.2,8.2c-0.2,2,0.2,4,1.1,5.7c0.8,1.2,2.1,2,3.6,1.9c1.9,0.2,3.6-1.2,3.8-3.1c0-0.1,0-0.2,0-0.3H6.2v-5.9
				L18.8,38.1z"/>
		</g>
	</g>
	<g>
		<path d="M0,0h5.1l2.5,9.1C8.3,11.3,8.8,14,8.8,14h0.1c0,0,0.5-2.6,1.1-4.9L12.5,0h5.2v18h-3.4V7.7c0-1.4,0.2-3.7,0.2-3.7h-0.1
			c0,0-0.4,2.2-0.8,3.4l-3.1,10.6H7l-3-10.7C3.7,6,3.2,4,3.2,4l0,0c0,0,0.2,2.3,0.2,3.7V18H0V0z"/>
		<path d="M27.4,16.6L27.4,16.6c-0.7,1-1.6,1.7-3.9,1.7c-2.6,0-4.5-1.4-4.5-4c0-2.9,2.3-3.8,5.2-4.1c2.2-0.3,3.2-0.5,3.2-1.4
			c0-0.9-0.7-1.5-2.2-1.5c-1.6,0-2.4,0.5-2.5,1.8h-3.1c0.1-2.3,1.8-4.2,5.6-4.2c3.9,0,5.4,1.7,5.4,4.8v6.6c0,1,0.2,1.5,0.5,1.8V18
			h-3.3C27.6,17.8,27.5,17.2,27.4,16.6z M27.4,13.5v-2c-0.6,0.4-1.5,0.5-2.4,0.7c-1.8,0.4-2.7,0.8-2.7,2c0,1.2,0.8,1.6,2,1.6
			C26.3,15.9,27.4,14.8,27.4,13.5z"/>
		<path d="M31.5,11.6c0-4.1,2.3-6.8,5.5-6.8c1.8,0,3,0.8,3.7,1.9h0.1V0h3.4v18h-3.3v-1.7h-0.1c-0.7,1.3-2.1,2.1-3.9,2.1
			C33.8,18.5,31.5,15.8,31.5,11.6z M40.9,11.7c0-2.4-0.8-4.1-3-4.1C36,7.6,35,9.2,35,11.6c0,2.5,1,4,2.8,4
			C39.8,15.6,40.9,14,40.9,11.7z"/>
		<path d="M45.1,11.5c0-3.9,2.6-6.8,6.4-6.8c4.1,0,6.4,3.2,6.4,7.8h-9.4c0.3,2,1.4,3.2,3.3,3.2c1.4,0,2.2-0.6,2.5-1.6h3.4
			c-0.5,2.3-2.5,4.2-5.9,4.2C47.6,18.5,45.1,15.4,45.1,11.5z M48.6,10.2h5.8c-0.1-1.6-1.2-2.8-2.8-2.8C49.8,7.4,48.9,8.5,48.6,10.2z
			"/>
		<path d="M65.8,16.4L65.8,16.4L65.7,18h-3.3V0h3.4v6.7h0.1c0.7-1.1,1.8-1.9,3.6-1.9c3.2,0,5.6,2.8,5.6,6.8c0,4.1-2.3,6.8-5.5,6.8
			C67.9,18.5,66.6,17.7,65.8,16.4z M71.7,11.6c0-2.4-1-4.1-2.9-4.1c-2.2,0-3,1.7-3,4.1c0,2.3,1.2,3.9,3.1,3.9
			C70.7,15.6,71.7,14,71.7,11.6z"/>
		<path d="M76,19.5h1.2c1.4,0,1.9-0.7,1.9-1.8c0-0.7-0.3-1.5-1-3.5L74.6,5h3.6l1.9,5.9c0.4,1.2,0.8,2.8,0.8,2.8h0.2
			c0,0,0.4-1.6,0.7-2.8L83.6,5H87l-4.5,13.2c-1,2.9-2,3.9-4.6,3.9h-2L76,19.5L76,19.5z"/>
	</g>
</g>
</svg>
