<?xml version="1.0" encoding="utf-8"?>
<!-- Generator: Adobe Illustrator 25.0.1, SVG Export Plug-In . SVG Version: 6.00 Build 0)  -->
<svg version="1.1" id="Layer_1" xmlns="http://www.w3.org/2000/svg" xmlns:xlink="http://www.w3.org/1999/xlink" x="0px" y="0px"
	 viewBox="0 0 190.2 32.8" style="enable-background:new 0 0 190.2 32.8;" xml:space="preserve">
	 <style type="text/css">
	path {fill:#000000;}
	</style>
<g>
	<g id="Group_102" transform="translate(68.195 0.636)">
		<g id="Path_643">
			<path d="M59,27.6h-7l-7.6-12.2l-0.8-1.5l-0.9-1.6c-0.3-0.5-0.5-1-1.3-2.7l0.2,1c0.3,1.2,0.4,2.3,0.4,3.5v13.5h-7V-0.2h8.1
				L49.6,10c1.1,1.7,2.1,3.5,2.9,5.3c-0.4-2.4-0.7-4.8-0.7-7.3v-8.2h7L59,27.6z"/>
		</g>
		<g id="Path_644">
			<path d="M97.5-0.2l-7.4,27.7h-7.2L79,12.2l-3.7,15.3h-7.5L60.4-0.2h8.1l3.9,16l3.8-16H83l4.1,16l3.9-16H97.5z"/>
		</g>
		<g id="Path_645">
			<path d="M122,12v15.6h-4.2l-0.2-0.5c-0.2-0.8-0.6-1.6-1-2.4c-1.9,2.3-4.7,3.5-7.7,3.3c-7.4,0-12.4-5.6-12.4-13.9
				c-0.1-3.8,1.1-7.5,3.4-10.5c2.5-2.9,6.1-4.5,9.9-4.2c5.1,0,8.9,2.1,10.8,6c0.6,1.2,1,2.4,1.2,3.7l-8.3,0.8
				c-0.5-3-1.7-4.3-3.8-4.3c-2.9,0-4.2,2.6-4.2,8.2c-0.2,2,0.2,4,1.1,5.7c0.8,1.2,2.1,2,3.6,1.9c1.9,0.2,3.6-1.2,3.8-3.1
				c0-0.1,0-0.2,0-0.3h-4.6v-5.9L122,12z"/>
		</g>
	</g>
	<g>
		<path d="M0,8.1h5.7l2.8,10.1c0.7,2.5,1.3,5.4,1.3,5.4h0.1c0,0,0.5-2.9,1.2-5.4l2.8-10.1h5.8v20h-3.8V16.7c0-1.6,0.2-4.1,0.2-4.1
			H16c0,0-0.4,2.4-0.9,3.8l-3.4,11.8H7.8L4.5,16.3c-0.4-1.5-0.9-3.8-0.9-3.8H3.6c0,0,0.2,2.5,0.2,4.1v11.5H0V8.1z"/>
		<path d="M30.4,26.5L30.4,26.5c-0.8,1.1-1.8,1.9-4.3,1.9c-2.9,0-5-1.5-5-4.4c0-3.2,2.6-4.2,5.8-4.6c2.4-0.3,3.5-0.5,3.5-1.6
			c0-1-0.8-1.7-2.4-1.7c-1.8,0-2.7,0.6-2.8,2h-3.4c0.1-2.5,2-4.7,6.2-4.7c4.3,0,6,1.9,6,5.3V26c0,1.1,0.2,1.7,0.5,2v0.1h-3.7
			C30.6,27.9,30.5,27.2,30.4,26.5z M30.4,23.1v-2.2c-0.7,0.4-1.7,0.6-2.7,0.8c-2,0.4-3,0.9-3,2.2c0,1.3,0.9,1.8,2.2,1.8
			C29.2,25.8,30.4,24.5,30.4,23.1z"/>
		<path d="M35,21c0-4.5,2.5-7.6,6.1-7.6c2,0,3.3,0.9,4.1,2.1h0.1V8.1h3.8v20h-3.7v-1.9h-0.1c-0.8,1.4-2.3,2.3-4.3,2.3
			C37.5,28.6,35,25.6,35,21z M45.4,21.1c0-2.7-0.9-4.6-3.3-4.6c-2.1,0-3.2,1.8-3.2,4.5c0,2.8,1.1,4.4,3.1,4.4
			C44.2,25.4,45.4,23.7,45.4,21.1z"/>
		<path d="M50.1,20.9c0-4.3,2.9-7.6,7.1-7.6c4.6,0,7.1,3.5,7.1,8.7H53.9c0.3,2.2,1.5,3.6,3.7,3.6c1.5,0,2.4-0.7,2.8-1.8h3.8
			c-0.5,2.5-2.8,4.7-6.5,4.7C52.8,28.6,50.1,25.2,50.1,20.9z M54,19.4h6.4c-0.1-1.8-1.3-3.1-3.1-3.1C55.3,16.3,54.3,17.5,54,19.4z"
			/>
		<path d="M73.1,26.3L73.1,26.3l-0.1,1.8h-3.7v-20h3.8v7.4h0.1c0.8-1.2,2-2.1,4-2.1c3.6,0,6.2,3.1,6.2,7.6c0,4.6-2.5,7.6-6.1,7.6
			C75.4,28.6,73.9,27.7,73.1,26.3z M79.6,21c0-2.7-1.1-4.5-3.2-4.5c-2.4,0-3.3,1.9-3.3,4.6c0,2.6,1.3,4.3,3.4,4.3
			C78.5,25.4,79.6,23.7,79.6,21z"/>
		<path d="M84.4,29.8h1.3c1.5,0,2.1-0.8,2.1-2c0-0.8-0.3-1.7-1.1-3.9l-3.9-10.2h4l2.1,6.5c0.4,1.3,0.9,3.1,0.9,3.1H90
			c0,0,0.4-1.8,0.8-3.1l2-6.5h3.8l-5,14.7c-1.1,3.2-2.2,4.3-5.1,4.3h-2.2V29.8z"/>
	</g>
</g>
</svg>
