<svg version="1.1" id="Layer_1" xmlns="http://www.w3.org/2000/svg" xmlns:xlink="http://www.w3.org/1999/xlink" x="0px" y="0px"
	 viewBox="0 0 30.5 32.9" style="enable-background:new 0 0 30.5 32.9;" xml:space="preserve">
<style type="text/css">
	.st9{fill:#000;}
</style>
	<path class="st9" d="M21,25.4c-1.4,4.5-5.6,7.5-10.3,7.5C4.8,32.9,0,28.1,0,22.1c0-4.5,2.8-8.6,7.1-10.1l0.3,2.5
		c-3,1.3-5,4.3-5,7.7c0,4.6,3.8,8.4,8.4,8.4c4.8,0,8.7-4.1,8.4-8.9L21,25.4z M30.5,25.6L25.7,28c-0.2,0.1-0.4,0.1-0.5,0.1
		c-0.4,0-0.9-0.3-1.1-0.7l-4.5-8.9h-8.8c-0.6,0-1.1-0.5-1.2-1.1L7.8,2.9c0-0.2,0.1-0.6,0.1-0.8C8.2,0.8,9.4,0,10.8,0
		c1.6,0,3,1.3,3,3c0,1.7-1.5,3.2-3.2,3l0.7,5.4h7.9v2.4h-7.6l0.3,2.4h8.5c0.4,0,0.9,0.3,1.1,0.7l4.3,8.5l3.7-1.9L30.5,25.6z"/>
</svg>
