<svg id="Layer_1" data-name="Layer 1" xmlns="http://www.w3.org/2000/svg" viewBox="0 0 16.67 15.91"><defs><style>.cls-1{fill:#000000;}</style></defs><polygon class="cls-1" points="1.01 12.79 1.01 14.01 1.94 14.01 1.94 13.79 1.26 13.79 1.26 13.48 1.86 13.48 1.86 13.27 1.26 13.27 1.26 13 1.91 13 1.91 12.79 1.01 12.79"/><path class="cls-1" d="M3.32,14l-.13-.13a.69.69,0,0,0,.12-.43.58.58,0,0,0-.59-.65.58.58,0,0,0-.59.65.58.58,0,0,0,.59.65A.68.68,0,0,0,3,14l.14.14Zm-.58-.28.12.11a.25.25,0,0,1-.14,0c-.13,0-.33-.09-.33-.43s.2-.43.33-.43.34.08.34.43a.45.45,0,0,1-.06.26l-.13-.11Z"/><path class="cls-1" d="M4.52,13.58c0,.33-.19.47-.5.47a.5.5,0,0,1-.39-.16.44.44,0,0,1-.09-.29v-.81H3.8v.79c0,.17.09.25.21.25s.25-.09.25-.24v-.8h.26Z"/><path class="cls-1" d="M5,13.76h.45l.08.25h.28l-.43-1.22H5.07L4.63,14H4.9Zm.22-.7h0l.15.49H5.05Z"/><polygon class="cls-1" points="5.99 12.79 5.99 14.01 6.86 14.01 6.86 13.79 6.25 13.79 6.25 12.79 5.99 12.79"/><polygon class="cls-1" points="8.32 12.79 8.32 13.25 7.83 13.25 7.83 12.79 7.58 12.79 7.58 14.01 7.83 14.01 7.83 13.46 8.32 13.46 8.32 14.01 8.57 14.01 8.57 12.79 8.32 12.79"/><path class="cls-1" d="M8.8,13.4a.59.59,0,1,0,1.18,0,.59.59,0,1,0-1.18,0m.26,0c0-.35.19-.43.33-.43s.34.08.34.43-.2.43-.34.43-.33-.09-.33-.43"/><path class="cls-1" d="M11.21,13.58c0,.33-.2.47-.51.47a.48.48,0,0,1-.38-.16.39.39,0,0,1-.1-.29v-.81h.25v.79a.23.23,0,0,0,.23.25c.18,0,.25-.09.25-.24v-.8h.26Z"/><path class="cls-1" d="M11.67,13.63c0,.07,0,.2.27.2s.25,0,.25-.16-.09-.12-.21-.15l-.13,0c-.2-.05-.4-.09-.4-.36s.07-.38.48-.38a.41.41,0,0,1,.47.4h-.24c0-.06,0-.18-.26-.18s-.21,0-.21.14.08.12.13.13l.3.07c.16,0,.32.11.32.33s-.38.41-.47.41c-.46,0-.54-.26-.54-.42Z"/><rect class="cls-1" x="12.65" y="12.79" width="0.26" height="1.22"/><polygon class="cls-1" points="13.93 12.79 13.93 13.64 13.93 13.64 13.44 12.79 13.18 12.79 13.18 14.01 13.41 14.01 13.41 13.13 13.92 14.01 14.18 14.01 14.18 12.79 13.93 12.79"/><path class="cls-1" d="M15,13.35h.52V14h-.18l0-.16a.45.45,0,0,1-.38.2.58.58,0,0,1-.57-.65.59.59,0,0,1,.6-.65.48.48,0,0,1,.54.42h-.26A.26.26,0,0,0,15,13c-.19,0-.36.12-.36.43s.19.43.36.43a.3.3,0,0,0,.3-.27H15Z"/><path class="cls-1" d="M1,15.26a.58.58,0,0,0,.59.65.58.58,0,0,0,.59-.65.58.58,0,0,0-.59-.65.58.58,0,0,0-.59.65m.26,0c0-.34.19-.43.33-.43s.33.09.33.43-.2.43-.33.43-.33-.09-.33-.43"/><path class="cls-1" d="M2.84,15.43h.29a.39.39,0,0,0,0-.78H2.59v1.23h.25Zm0-.21v-.36h.21c.16,0,.22.05.22.17s0,.19-.19.19Z"/><path class="cls-1" d="M4.22,15.43h.29a.38.38,0,0,0,.4-.38.36.36,0,0,0-.39-.4H4v1.23h.25Zm0-.21v-.36h.21c.15,0,.23.05.23.17s0,.19-.2.19Z"/><path class="cls-1" d="M5.29,15.26a.58.58,0,0,0,.59.65.58.58,0,0,0,.6-.65.59.59,0,0,0-.6-.65.58.58,0,0,0-.59.65m.26,0c0-.34.19-.43.33-.43s.33.09.33.43-.19.43-.33.43-.33-.09-.33-.43"/><path class="cls-1" d="M6.91,15.88h.26V15.4h.27c.17,0,.19,0,.19.23a.72.72,0,0,0,0,.25h.27v0c-.05,0-.05-.06-.05-.24s-.06-.27-.15-.32A.28.28,0,0,0,7.92,15a.34.34,0,0,0-.38-.36H6.91Zm.26-.69v-.33h.32c.16,0,.18.1.18.16s-.07.17-.2.17Z"/><polygon class="cls-1" points="8.26 14.65 8.26 14.86 8.62 14.86 8.62 15.88 8.88 15.88 8.88 14.86 9.25 14.86 9.25 14.65 8.26 14.65"/><path class="cls-1" d="M10.63,15.44c0,.33-.19.47-.51.47a.57.57,0,0,1-.39-.15.45.45,0,0,1-.09-.3v-.81h.27v.79c0,.18.09.25.21.25s.25-.09.25-.24v-.8h.26Z"/><polygon class="cls-1" points="11.87 14.65 11.87 15.51 11.87 15.51 11.38 14.65 11.11 14.65 11.11 15.88 11.35 15.88 11.35 15 11.35 15 11.86 15.88 12.12 15.88 12.12 14.65 11.87 14.65"/><rect class="cls-1" x="12.58" y="14.65" width="0.25" height="1.23"/><polygon class="cls-1" points="13.22 14.65 13.22 14.86 13.59 14.86 13.59 15.88 13.84 15.88 13.84 14.86 14.21 14.86 14.21 14.65 13.22 14.65"/><polygon class="cls-1" points="15.18 15.88 14.92 15.88 14.92 15.42 14.5 14.65 14.8 14.65 15.06 15.19 15.29 14.65 15.59 14.65 15.18 15.42 15.18 15.88"/><path class="cls-1" d="M13.77,10h-11V4.75L8.27,1.91l5.5,2.84ZM8.27,0,0,4.07V6H.93v5.73H15.56V6h1.11V4.07Z"/><rect class="cls-1" x="5.68" y="4.75" width="5.12" height="1.85"/><rect class="cls-1" x="5.68" y="7.41" width="5.12" height="1.84"/></svg>