<svg id="Layer_1" data-name="Layer 1" xmlns="http://www.w3.org/2000/svg" viewBox="0 0 26.28 25.09"><defs><style>.cls-1{fill:#000000;}</style></defs><title>EHO Logo</title><polygon class="cls-1" points="1.58 20.17 1.58 22.08 3.06 22.08 3.06 21.75 1.98 21.75 1.98 21.26 2.93 21.26 2.93 20.93 1.98 20.93 1.98 20.5 3.01 20.5 3.01 20.17 1.58 20.17"/><path class="cls-1" d="M5.23,22,5,21.81a1,1,0,0,0,.19-.68.9.9,0,0,0-.77-1H4.29a.92.92,0,0,0-.94.9.57.57,0,0,0,0,.13.9.9,0,0,0,.78,1h.15A.93.93,0,0,0,4.75,22l.21.24Zm-.92-.44.2.19a.41.41,0,0,1-.22,0c-.2,0-.52-.16-.52-.68s.32-.68.52-.68.46.2.46.74a.72.72,0,0,1,0,.41l-.2-.19Z"/><path class="cls-1" d="M7.13,21.42c0,.52-.3.73-.79.73a.75.75,0,0,1-.62-.24.7.7,0,0,1-.14-.46V20.17H6v1.25c0,.27.14.39.33.39a.34.34,0,0,0,.39-.29.28.28,0,0,0,0-.09V20.17h.41Z"/><path class="cls-1" d="M7.92,21.7h.63l.13.38h.44l-.68-1.91H8l-.7,1.91h.41Zm.35-1.11h0l.22.78H7.92Z"/><polygon class="cls-1" points="9.44 20.17 9.44 22.08 10.8 22.08 10.8 21.75 9.85 21.75 9.85 20.17 9.44 20.17"/><polygon class="cls-1" points="13.12 20.17 13.12 20.89 12.34 20.89 12.34 20.17 11.94 20.17 11.94 22.08 12.34 22.08 12.34 21.23 13.12 21.23 13.12 22.08 13.5 22.08 13.5 20.17 13.12 20.17"/><path class="cls-1" d="M13.86,21.13a.94.94,0,1,0,1.87,0h0a.94.94,0,0,0-1.87,0m.41,0c0-.55.32-.68.53-.68s.53.13.53.68-.31.68-.53.68-.54-.16-.54-.68"/><path class="cls-1" d="M17.66,21.42c0,.52-.3.73-.79.73a.78.78,0,0,1-.6-.24.65.65,0,0,1-.16-.46V20.17h.4v1.25a.34.34,0,0,0,.29.39h.05a.34.34,0,0,0,.4-.29V20.17h.41Z"/><path class="cls-1" d="M18.41,21.5c0,.09,0,.31.41.31s.4,0,.4-.25-.15-.19-.34-.25h-.2a.56.56,0,0,1-.64-.57c0-.43.13-.61.76-.61a.65.65,0,0,1,.74.55.28.28,0,0,1,0,.09h-.4c0-.08,0-.29-.39-.29-.13,0-.34,0-.34.22s.13.19.21.21l.47.13a.48.48,0,0,1,.51.5c0,.34-.6.64-.74.64-.73,0-.84-.4-.84-.65Z"/><rect class="cls-1" x="19.94" y="20.17" width="0.41" height="1.92"/><polygon class="cls-1" points="21.97 20.17 21.97 21.51 21.96 21.51 21.2 20.17 20.77 20.17 20.77 22.08 21.15 22.08 21.15 20.7 21.94 22.08 22.35 22.08 22.35 20.17 21.97 20.17"/><path class="cls-1" d="M23.76,21.05h.81v1h-.33v-.24a.71.71,0,0,1-.61.31.92.92,0,0,1-.89-.92.38.38,0,0,1,0-.1.93.93,0,0,1,.83-1h.12a.76.76,0,0,1,.85.66h-.41a.41.41,0,0,0-.43-.32c-.28,0-.55.19-.55.68s.3.68.55.68a.48.48,0,0,0,.48-.42h-.43Z"/><path class="cls-1" d="M1.58,24.06a.93.93,0,0,0,.8,1h.14a.92.92,0,0,0,.94-.89.66.66,0,0,0,0-.14.91.91,0,0,0-.8-1H2.52a.92.92,0,0,0-.94.9v.13m.42,0c0-.54.3-.68.52-.68s.52.14.52.68-.32.68-.52.68S2,24.62,2,24.06"/><path class="cls-1" d="M4.47,24.35h.47a.59.59,0,0,0,.62-.56v0A.58.58,0,0,0,5,23.13H4.09v1.95h.38Zm0-.34v-.57h.28c.26,0,.35,0,.35.26a.26.26,0,0,1-.21.31H4.47Z"/><path class="cls-1" d="M6.65,24.35h.46a.59.59,0,0,0,.62-.56v0a.57.57,0,0,0-.5-.63H6.34v1.95h.31Zm0-.34v-.57H7c.25,0,.36,0,.36.26a.26.26,0,0,1-.21.31H6.65Z"/><path class="cls-1" d="M8.33,24.06a.93.93,0,0,0,.8,1h.14a.92.92,0,0,0,1-.88.75.75,0,0,0,0-.15.93.93,0,0,0-.84-1H9.27a.92.92,0,0,0-.94.9.57.57,0,0,0,0,.13m.41,0c0-.54.31-.68.53-.68s.52.14.52.68-.3.68-.52.68-.53-.12-.53-.68"/><path class="cls-1" d="M10.9,25h.39v-.76h.43c.29,0,.3.08.3.37A1.28,1.28,0,0,0,12,25h.49c-.07,0-.07-.09-.07-.38a.48.48,0,0,0-.24-.49.47.47,0,0,0,.28-.46.54.54,0,0,0-.52-.55H10.9ZM11.29,24v-.53h.51c.26,0,.29.15.29.26a.3.3,0,0,1-.32.27Z"/><polygon class="cls-1" points="13.02 23.1 13.02 23.45 13.59 23.45 13.59 25.03 14 25.03 14 23.45 14.59 23.45 14.59 23.1 13.02 23.1"/><path class="cls-1" d="M16.76,24.36c0,.51-.32.73-.81.73a.81.81,0,0,1-.6-.24.78.78,0,0,1-.16-.47V23.1h.43v1.26c0,.27.14.38.33.38a.38.38,0,0,0,.4-.38V23.1h.41Z"/><polygon class="cls-1" points="18.72 23.1 18.72 24.44 18.71 24.44 17.95 23.1 17.52 23.1 17.52 25.03 17.88 25.03 17.88 23.67 17.88 23.67 18.69 25.03 19.1 25.03 19.1 23.1 18.72 23.1"/><rect class="cls-1" x="19.83" y="23.1" width="0.4" height="1.93"/><polygon class="cls-1" points="20.83 23.1 20.83 23.45 21.42 23.45 21.42 25.03 21.81 25.03 21.81 23.45 22.41 23.45 22.41 23.1 20.83 23.1"/><polygon class="cls-1" points="23.94 25.03 23.52 25.03 23.52 24.32 22.86 23.1 23.33 23.1 23.73 23.95 24.11 23.1 24.59 23.1 23.94 24.32 23.94 25.03"/><path class="cls-1" d="M21.7,15.84H4.28V7.48L13,3,21.7,7.48ZM13,0,0,6.42V9.5H1.46v9H24.52v-9h1.76V6.42Z"/><rect class="cls-1" x="8.95" y="7.48" width="8.08" height="2.91"/><rect class="cls-1" x="8.95" y="11.67" width="8.08" height="2.91"/></svg>