<svg xmlns="http://www.w3.org/2000/svg" width="30" height="30" viewBox="0 0 30 30"><title>facebook-logo</title><g id="Nav-Header"><path d="M30,5.625v18.75A5.6263,5.6263,0,0,1,24.375,30H20.7031V18.379H24.59l.5862-4.5312H20.7031V10.9566c0-1.3084.3516-2.1875,2.246-2.1875L25.3322,8.75V4.7066a31.2608,31.2608,0,0,0-3.4769-.1754c-3.4569,0-5.84,2.11-5.84,5.9769v3.34H12.1094V18.379h3.9062V30H5.625A5.6263,5.6263,0,0,1,0,24.375V5.625A5.6263,5.6263,0,0,1,5.625,0h18.75A5.6263,5.6263,0,0,1,30,5.625Z" fill="#FFFFFF"/></g></svg>