<svg xmlns="http://www.w3.org/2000/svg" width="41.564" height="21.797" viewBox="0 0 41.564 21.797">
  <g id="Group_1164" data-name="Group 1164" transform="translate(-846.167 -2091.203)">
    <path id="Path_607" data-name="Path 607" d="M.334,21.111v.641H0V19.663l.482,0H.967a.845.845,0,0,1,.295.049.609.609,0,0,1,.221.133.826.826,0,0,1,.148.192.6.6,0,0,1,.075.229,1.07,1.07,0,0,1,0,.24.632.632,0,0,1-.073.23.757.757,0,0,1-.148.192.655.655,0,0,1-.223.135.823.823,0,0,1-.295.051Zm0-.308H.967a.416.416,0,0,0,.228-.061.366.366,0,0,0,.141-.155.491.491,0,0,0,.043-.2.483.483,0,0,0-.043-.2.363.363,0,0,0-.141-.156.424.424,0,0,0-.228-.061H.334Z" transform="translate(846.167 2091.203)" fill="#fff"/>
    <path id="Path_608" data-name="Path 608" d="M4.91,21.752H4.519l-.636-.722H3.441v.722H3.107V19.659l.486,0H4.08a.723.723,0,0,1,.542.2.668.668,0,0,1,.195.482.678.678,0,0,1-.139.428A.622.622,0,0,1,4.25,21l.624.7ZM3.441,19.967v.758h.636a.392.392,0,0,0,.3-.107.372.372,0,0,0,.1-.266.393.393,0,0,0-.1-.27.371.371,0,0,0-.3-.115Z" transform="translate(846.167 2091.203)" fill="#fff"/>
    <path id="Path_609" data-name="Path 609" d="M8.034,19.944a1.133,1.133,0,0,1,.278.772,1.219,1.219,0,0,1-.067.407,1.1,1.1,0,0,1-.194.345.87.87,0,0,1-.336.241,1.222,1.222,0,0,1-.472.088,1.186,1.186,0,0,1-.472-.091.885.885,0,0,1-.335-.244,1.078,1.078,0,0,1-.194-.341,1.2,1.2,0,0,1-.068-.4,1.082,1.082,0,0,1,.3-.787,1.034,1.034,0,0,1,.773-.309,1,1,0,0,1,.785.321M6.552,21a.8.8,0,0,0,.13.245.614.614,0,0,0,.231.179.775.775,0,0,0,.33.067A.681.681,0,0,0,7.8,21.27a.819.819,0,0,0,.185-.548.951.951,0,0,0-.073-.376.673.673,0,0,0-.244-.294.716.716,0,0,0-.414-.124.7.7,0,0,0-.548.221.833.833,0,0,0-.2.573A.95.95,0,0,0,6.552,21" transform="translate(846.167 2091.203)" fill="#fff"/>
    <path id="Path_610" data-name="Path 610" d="M10.087,21.111v.641H9.753V19.663l.482,0h.485a.845.845,0,0,1,.3.049.609.609,0,0,1,.221.133.826.826,0,0,1,.148.192.6.6,0,0,1,.075.229,1.07,1.07,0,0,1,0,.24.632.632,0,0,1-.073.23.757.757,0,0,1-.148.192.655.655,0,0,1-.223.135.823.823,0,0,1-.3.051Zm0-.308h.633a.416.416,0,0,0,.228-.061.366.366,0,0,0,.141-.155.491.491,0,0,0,.043-.2.483.483,0,0,0-.043-.2.363.363,0,0,0-.141-.156.424.424,0,0,0-.228-.061h-.633Z" transform="translate(846.167 2091.203)" fill="#fff"/>
    <path id="Path_611" data-name="Path 611" d="M14.4,21.752H12.86v-2.09h1.534v.326h-1.2v.564h1.152v.31H13.194v.562H14.4Z" transform="translate(846.167 2091.203)" fill="#fff"/>
    <path id="Path_612" data-name="Path 612" d="M17.68,21.752h-.391l-.636-.722h-.442v.722h-.334V19.659l.486,0h.487a.723.723,0,0,1,.542.2.668.668,0,0,1,.195.482.678.678,0,0,1-.139.428A.622.622,0,0,1,17.02,21l.624.7Zm-1.469-1.785v.758h.636a.392.392,0,0,0,.3-.107.372.372,0,0,0,.1-.266.393.393,0,0,0-.1-.27.371.371,0,0,0-.3-.115Z" transform="translate(846.167 2091.203)" fill="#fff"/>
    <path id="Path_613" data-name="Path 613" d="M19.512,19.964h-.687v-.3h1.708v.3h-.684v1.788h-.337Z" transform="translate(846.167 2091.203)" fill="#fff"/>
    <path id="Path_614" data-name="Path 614" d="M22.649,20.585l.594-.923h.4v.015l-.83,1.219v.856h-.334V20.9l-.806-1.219v-.015h.4Z" transform="translate(846.167 2091.203)" fill="#fff"/>
    <path id="Path_615" data-name="Path 615" d="M28.188,20.143a.734.734,0,0,0-.261-.166.874.874,0,0,0-.3-.058.724.724,0,0,0-.565.233.82.82,0,0,0-.206.576.775.775,0,0,0,.195.535.731.731,0,0,0,.576.217.767.767,0,0,0,.51-.185v-.424h-.582v-.3h.893v.857a1.065,1.065,0,0,1-.821.364,1.315,1.315,0,0,1-.494-.088.876.876,0,0,1-.345-.239,1.051,1.051,0,0,1-.194-.337,1.2,1.2,0,0,1-.066-.4,1.135,1.135,0,0,1,.293-.8,1.035,1.035,0,0,1,.806-.321,1.058,1.058,0,0,1,.773.316Z" transform="translate(846.167 2091.203)" fill="#fff"/>
    <path id="Path_616" data-name="Path 616" d="M31.719,21.752h-.391l-.636-.722H30.25v.722h-.335V19.659l.487,0h.487a.723.723,0,0,1,.542.2.668.668,0,0,1,.195.482.678.678,0,0,1-.139.428.622.622,0,0,1-.428.223l.624.7ZM30.25,19.967v.758h.636a.392.392,0,0,0,.3-.107.372.372,0,0,0,.1-.266.393.393,0,0,0-.1-.27.371.371,0,0,0-.3-.115Z" transform="translate(846.167 2091.203)" fill="#fff"/>
    <path id="Path_617" data-name="Path 617" d="M34.843,19.944a1.133,1.133,0,0,1,.278.772,1.245,1.245,0,0,1-.067.407,1.1,1.1,0,0,1-.194.345.87.87,0,0,1-.336.241,1.222,1.222,0,0,1-.472.088,1.186,1.186,0,0,1-.472-.091.885.885,0,0,1-.335-.244,1.1,1.1,0,0,1-.195-.341,1.22,1.22,0,0,1-.067-.4,1.082,1.082,0,0,1,.3-.787,1.034,1.034,0,0,1,.773-.309,1,1,0,0,1,.785.321M33.361,21a.8.8,0,0,0,.13.245.606.606,0,0,0,.231.179.775.775,0,0,0,.33.067.681.681,0,0,0,.552-.219.82.82,0,0,0,.186-.548.952.952,0,0,0-.074-.376.673.673,0,0,0-.244-.294.716.716,0,0,0-.414-.124.7.7,0,0,0-.548.221.833.833,0,0,0-.195.573.95.95,0,0,0,.046.276" transform="translate(846.167 2091.203)" fill="#fff"/>
    <path id="Path_618" data-name="Path 618" d="M38.308,19.665v1.221a.884.884,0,0,1-.257.682.875.875,0,0,1-.654.223.89.89,0,0,1-.616-.245.872.872,0,0,1-.246-.66V19.665h.331v1.221a.61.61,0,0,0,.146.433.537.537,0,0,0,.385.164.519.519,0,0,0,.418-.145.605.605,0,0,0,.162-.452V19.665Z" transform="translate(846.167 2091.203)" fill="#fff"/>
    <path id="Path_619" data-name="Path 619" d="M40.185,21.111v.641h-.334V19.663l.482,0h.485a.845.845,0,0,1,.295.049.609.609,0,0,1,.221.133.826.826,0,0,1,.148.192.6.6,0,0,1,.075.229,1.07,1.07,0,0,1,0,.24.632.632,0,0,1-.073.23.757.757,0,0,1-.148.192.655.655,0,0,1-.223.135.823.823,0,0,1-.295.051Zm0-.308h.633a.413.413,0,0,0,.228-.061.366.366,0,0,0,.141-.155.491.491,0,0,0,.043-.2.483.483,0,0,0-.043-.2.363.363,0,0,0-.141-.156.422.422,0,0,0-.228-.061h-.633Z" transform="translate(846.167 2091.203)" fill="#fff"/>
    <path id="Path_620" data-name="Path 620" d="M5.353,8.87h-1.5L0,17.464H1.462l.81-1.8H6.925l.822,1.8H9.209ZM2.788,14.407,4.6,10.319l1.819,4.088Z" transform="translate(846.167 2091.203)" fill="#fff"/>
    <path id="Path_621" data-name="Path 621" d="M17.988,11.536a4.474,4.474,0,0,0-.779-1.346,3.5,3.5,0,0,0-1.351-.962,4.811,4.811,0,0,0-1.9-.357H10.708v8.594h3.254a4.806,4.806,0,0,0,1.94-.375,3.543,3.543,0,0,0,1.369-1,4.4,4.4,0,0,0,.766-1.393,4.589,4.589,0,0,0,.235-1.6,4.714,4.714,0,0,0-.284-1.559m-1.8,3.7a2.724,2.724,0,0,1-2.222.9H12.07V10.185h1.892a3.046,3.046,0,0,1,1.652.429,2.5,2.5,0,0,1,.974,1.069,3.557,3.557,0,0,1,.32,1.4,3.165,3.165,0,0,1-.724,2.154" transform="translate(846.167 2091.203)" fill="#fff"/>
    <path id="Path_622" data-name="Path 622" d="M21.141,16.649a3.259,3.259,0,0,0,.359.273Z" transform="translate(846.167 2091.203)" fill="#fff"/>
    <path id="Path_623" data-name="Path 623" d="M36.357,8.871v6.114L31.483,8.871H30.426v8.594h1.388V11.4l4.876,6.065h1.042V8.871Z" transform="translate(846.167 2091.203)" fill="#fff"/>
    <rect id="Rectangle_400" data-name="Rectangle 400" width="1.361" height="8.594" transform="translate(886.369 2100.074)" fill="#fff"/>
    <path id="Path_624" data-name="Path 624" d="M28.486,13.2a5.051,5.051,0,0,1-.275,1.675,4.547,4.547,0,0,1-.8,1.419,3,3,0,0,1-.368.371,2.645,2.645,0,0,1-.24.191,3.967,3.967,0,0,1-.773.427,4.994,4.994,0,0,1-1.939.36,4.8,4.8,0,0,1-1.941-.374,4.371,4.371,0,0,1-.651-.352l-.359-.273a3.2,3.2,0,0,1-.371-.375,4.556,4.556,0,0,1-.8-1.407,4.926,4.926,0,0,1-.276-1.65,4.435,4.435,0,0,1,1.241-3.235,4.009,4.009,0,0,1,.4-.363l-.063,2.256a4.03,4.03,0,0,0-.215,1.355,3.952,3.952,0,0,0,.151,1.009c.012.042.024.084.038.126a3.221,3.221,0,0,0,.207.492l.35-12.544.374,13.457a2.438,2.438,0,0,0,.27.188l.112.063.383-14.7.39,14.99a2.831,2.831,0,0,0,.42.063L24.148,0l.392,16.362a3.559,3.559,0,0,0,.373-.054L25.3,1.316l.383,14.715A.31.31,0,0,0,25.733,16,2.048,2.048,0,0,0,26,15.828l.38-13.515.352,12.623a3.087,3.087,0,0,0,.247-.608,3.918,3.918,0,0,0,.147-1.1,3.987,3.987,0,0,0-.214-1.316l-.066-2.358a3.552,3.552,0,0,1,.5.475A4.658,4.658,0,0,1,28.486,13.2" transform="translate(846.167 2091.203)" fill="#fff"/>
  </g>
</svg>
