<?xml version="1.0" encoding="utf-8"?>
<!-- Generator: Adobe Illustrator 26.3.1, SVG Export Plug-In . SVG Version: 6.00 Build 0)  -->
<svg version="1.1" id="Layer_1" xmlns="http://www.w3.org/2000/svg" xmlns:xlink="http://www.w3.org/1999/xlink" x="0px" y="0px"
	 viewBox="0 0 16.7 15.9" style="enable-background:new 0 0 16.7 15.9;" xml:space="preserve">
<style type="text/css">
	.st0{fill:#FFFFFF;}
</style>
<g id="Group_42" transform="translate(-702.532 -1334.945)">
	<g id="Group_41">
		<g id="Group_40">
			<path id="Path_19" class="st0" d="M703.5,1347.7v1.2h0.9v-0.2h-0.7v-0.3h0.6v-0.2h-0.6v-0.3h0.7v-0.2L703.5,1347.7z"/>
			<path id="Path_20" class="st0" d="M705.9,1348.9l-0.1-0.1c0.1-0.1,0.1-0.3,0.1-0.4c0-0.3-0.2-0.6-0.5-0.6c0,0-0.1,0-0.1,0
				c-0.3,0-0.6,0.2-0.6,0.6c0,0,0,0.1,0,0.1c0,0.3,0.2,0.6,0.5,0.6c0,0,0.1,0,0.1,0c0.1,0,0.2,0,0.3-0.1l0.1,0.1L705.9,1348.9z
				 M705.3,1348.6l0.1,0.1c0,0-0.1,0-0.1,0c-0.1,0-0.3-0.1-0.3-0.4c0-0.4,0.2-0.4,0.3-0.4s0.3,0.1,0.3,0.4c0,0.1,0,0.2-0.1,0.3
				l-0.1-0.1L705.3,1348.6z"/>
			<path id="Path_21" class="st0" d="M707.1,1348.5c0,0.3-0.2,0.5-0.5,0.5c-0.1,0-0.3,0-0.4-0.2c-0.1-0.1-0.1-0.2-0.1-0.3v-0.8h0.3
				v0.8c0,0.2,0.1,0.2,0.2,0.2c0.2,0,0.2-0.1,0.2-0.2v-0.8h0.3L707.1,1348.5z"/>
			<path id="Path_22" class="st0" d="M707.5,1348.7h0.5l0.1,0.2h0.3l-0.4-1.2h-0.3l-0.4,1.2h0.3L707.5,1348.7z M707.7,1348
				L707.7,1348l0.2,0.5h-0.3L707.7,1348z"/>
			<path id="Path_23" class="st0" d="M708.5,1347.7v1.2h0.9v-0.2h-0.6v-1L708.5,1347.7z"/>
			<path id="Path_24" class="st0" d="M710.8,1347.7v0.5h-0.5v-0.5h-0.3v1.2h0.3v-0.5h0.5v0.5h0.2v-1.2H710.8z"/>
			<path id="Path_25" class="st0" d="M711.3,1348.3c0,0.3,0.2,0.6,0.5,0.6c0,0,0.1,0,0.1,0c0.3,0,0.6-0.2,0.6-0.5c0,0,0-0.1,0-0.1
				c0-0.3-0.2-0.6-0.5-0.6c0,0-0.1,0-0.1,0C711.6,1347.7,711.3,1347.9,711.3,1348.3C711.3,1348.3,711.3,1348.3,711.3,1348.3
				 M711.6,1348.3c0-0.4,0.2-0.4,0.3-0.4s0.3,0.1,0.3,0.4c0,0.3-0.2,0.4-0.3,0.4S711.6,1348.7,711.6,1348.3"/>
			<path id="Path_26" class="st0" d="M713.7,1348.5c0,0.3-0.2,0.5-0.5,0.5c-0.1,0-0.3,0-0.4-0.2c-0.1-0.1-0.1-0.2-0.1-0.3v-0.8h0.2
				v0.8c0,0.1,0.1,0.2,0.2,0.2c0,0,0,0,0,0c0.2,0,0.3-0.1,0.3-0.2v-0.8h0.3L713.7,1348.5z"/>
			<path id="Path_27" class="st0" d="M714.2,1348.6c0,0.1,0,0.2,0.3,0.2c0.1,0,0.2,0,0.2-0.2c0-0.1-0.1-0.1-0.2-0.2l-0.1,0
				c-0.2,0-0.4-0.1-0.4-0.4c0-0.1,0.1-0.4,0.5-0.4c0.2,0,0.4,0.1,0.5,0.4c0,0,0,0,0,0h-0.2c0-0.1,0-0.2-0.3-0.2
				c-0.1,0-0.2,0-0.2,0.1s0.1,0.1,0.1,0.1l0.3,0.1c0.2,0,0.3,0.1,0.3,0.3c0,0.4-0.4,0.4-0.5,0.4c-0.5,0-0.5-0.3-0.5-0.4
				L714.2,1348.6z"/>
			<rect id="Rectangle_21" x="715.2" y="1347.7" class="st0" width="0.3" height="1.2"/>
			<path id="Path_28" class="st0" d="M716.5,1347.7v0.9h0l-0.5-0.9h-0.3v1.2h0.2v-0.9l0.5,0.9h0.3v-1.2H716.5z"/>
			<path id="Path_29" class="st0" d="M717.6,1348.3h0.5v0.7h-0.2l0-0.2c-0.1,0.1-0.2,0.2-0.4,0.2c-0.3,0-0.6-0.3-0.6-0.6
				c0,0,0,0,0-0.1c0-0.3,0.2-0.6,0.5-0.6c0,0,0.1,0,0.1,0c0.3,0,0.5,0.1,0.5,0.4c0,0,0,0,0,0h-0.3c0-0.1-0.1-0.2-0.3-0.2
				c-0.2,0-0.4,0.1-0.4,0.4c0,0.3,0.2,0.4,0.4,0.4c0.2,0,0.3-0.1,0.3-0.3h-0.3L717.6,1348.3z"/>
			<path id="Path_30" class="st0" d="M703.5,1350.2c0,0.3,0.3,0.6,0.6,0.5c0.3,0,0.6-0.3,0.5-0.6c0-0.3-0.3-0.5-0.6-0.5
				C703.8,1349.5,703.5,1349.8,703.5,1350.2C703.5,1350.1,703.5,1350.2,703.5,1350.2 M703.7,1350.2c0-0.3,0.2-0.4,0.3-0.4
				s0.3,0.1,0.3,0.4s-0.2,0.4-0.3,0.4S703.7,1350.5,703.7,1350.2"/>
			<path id="Path_31" class="st0" d="M705.4,1350.4h0.3c0.2,0,0.4-0.1,0.4-0.3c0,0,0,0,0,0c0-0.2-0.1-0.4-0.3-0.4c0,0,0,0,0,0h-0.6
				v1.2h0.2L705.4,1350.4z M705.4,1350.2v-0.4h0.2c0.2,0,0.2,0.1,0.2,0.2c0,0.1,0,0.2-0.2,0.2L705.4,1350.2z"/>
			<path id="Path_32" class="st0" d="M706.8,1350.4h0.3c0.2,0,0.4-0.1,0.4-0.4c0,0,0,0,0,0c0-0.2-0.1-0.4-0.3-0.4c0,0,0,0-0.1,0
				h-0.6v1.2h0.3L706.8,1350.4z M706.8,1350.2v-0.4h0.2c0.2,0,0.2,0.1,0.2,0.2c0,0.1,0,0.2-0.2,0.2L706.8,1350.2z"/>
			<path id="Path_33" class="st0" d="M707.8,1350.2c-0.1,0.3,0.2,0.6,0.5,0.7s0.6-0.2,0.7-0.5c0-0.1,0-0.1,0-0.2
				c0.1-0.3-0.2-0.6-0.5-0.7s-0.6,0.2-0.7,0.5C707.8,1350.1,707.8,1350.1,707.8,1350.2 M708.1,1350.2c0-0.3,0.2-0.4,0.3-0.4
				s0.3,0.1,0.3,0.4s-0.2,0.4-0.3,0.4S708.1,1350.5,708.1,1350.2"/>
			<path id="Path_34" class="st0" d="M709.4,1350.8h0.3v-0.5h0.3c0.2,0,0.2,0.1,0.2,0.2c0,0.1,0,0.2,0,0.2h0.3v0
				c-0.1,0-0.1-0.1-0.1-0.2c0-0.2-0.1-0.3-0.1-0.3c0.1,0,0.2-0.2,0.2-0.3c0-0.2-0.1-0.4-0.3-0.4c0,0,0,0,0,0h-0.6L709.4,1350.8z
				 M709.7,1350.1v-0.3h0.3c0.2,0,0.2,0.1,0.2,0.2c0,0.1-0.1,0.2-0.2,0.2H709.7z"/>
			<path id="Path_35" class="st0" d="M710.8,1349.6v0.2h0.4v1h0.3v-1h0.4v-0.2H710.8z"/>
			<path id="Path_36" class="st0" d="M713.2,1350.4c0,0.3-0.2,0.5-0.5,0.5c-0.1,0-0.3,0-0.4-0.1c-0.1-0.1-0.1-0.2-0.1-0.3v-0.8h0.3
				v0.8c0,0.2,0.1,0.2,0.2,0.2c0.2,0,0.2-0.1,0.2-0.2v-0.8h0.3V1350.4z"/>
			<path id="Path_37" class="st0" d="M714.4,1349.6v0.9h0l-0.5-0.9h-0.3v1.2h0.2v-0.9l0,0l0.5,0.9h0.3v-1.2H714.4z"/>
			<rect id="Rectangle_22" x="715.1" y="1349.6" class="st0" width="0.3" height="1.2"/>
			<path id="Path_38" class="st0" d="M715.7,1349.6v0.2h0.4v1h0.2v-1h0.4v-0.2H715.7z"/>
			<path id="Path_39" class="st0" d="M717.7,1350.8h-0.3v-0.5l-0.4-0.8h0.3l0.3,0.5l0.2-0.5h0.3l-0.4,0.8L717.7,1350.8z"/>
			<path id="Path_40" class="st0" d="M716.3,1344.9h-11v-5.2l5.6-2.8l5.5,2.8L716.3,1344.9z M710.8,1334.9l-8.3,4.1v1.9h0.9v5.7
				h14.6v-5.7h1.1v-1.9L710.8,1334.9z"/>
			<rect id="Rectangle_23" x="708.2" y="1339.7" class="st0" width="5.1" height="1.9"/>
			<rect id="Rectangle_24" x="708.2" y="1342.4" class="st0" width="5.1" height="1.8"/>
		</g>
	</g>
</g>
</svg>
