<svg id="Layer_2_copy" data-name="Layer 2 copy" xmlns="http://www.w3.org/2000/svg" viewBox="0 0 82.05 93.63"><defs><style>.cls-1{fill:#000;}</style></defs><title>handicap_icon</title><path class="cls-1" d="M79.5,71.13l-9.23,3.33L58.11,46.4l-28.48.19-.39-5.3H49.86V33.46H28.45l-.95-16.79a8.35,8.35,0,1,0-9.16-8.31,8.67,8.67,0,0,0,1,4l3,41.85H53L65.56,83.69l16.5-6.47Z"/><path class="cls-1" d="M30.71,85.24a22.35,22.35,0,0,1-12-41.17L18,35a30.7,30.7,0,0,0,12.8,58.65,31.19,31.19,0,0,0,27.53-17L52.87,65.53A22.48,22.48,0,0,1,30.71,85.24Z"/></svg>