<svg xmlns="http://www.w3.org/2000/svg" width="30" height="30" viewBox="0 0 30 30"><title>instagram-logo</title><g id="Nav-Header"><path d="M15,2.7026c4.0052,0,4.48.0153,6.0613.0875a8.3,8.3,0,0,1,2.7853.5165,4.647,4.647,0,0,1,1.7247,1.1221,4.6443,4.6443,0,0,1,1.122,1.7247A8.3015,8.3015,0,0,1,27.21,8.9387c.0721,1.5817.0875,2.0561.0875,6.0613s-.0154,4.48-.0875,6.0613a8.3009,8.3009,0,0,1-.5166,2.7853,4.9666,4.9666,0,0,1-2.8467,2.8468,8.3,8.3,0,0,1-2.7853.5165c-1.5816.0722-2.0558.0874-6.0613.0874s-4.48-.0152-6.0613-.0874a8.3,8.3,0,0,1-2.7853-.5165,4.648,4.648,0,0,1-1.7247-1.122,4.6479,4.6479,0,0,1-1.122-1.7248A8.3009,8.3009,0,0,1,2.79,21.0613C2.718,19.48,2.7026,19.0052,2.7026,15s.0154-4.48.0875-6.0613a8.3015,8.3015,0,0,1,.5166-2.7853,4.6468,4.6468,0,0,1,1.122-1.7247A4.647,4.647,0,0,1,6.1534,3.3066,8.3,8.3,0,0,1,8.9387,2.79c1.5818-.0722,2.0561-.0875,6.0613-.0875M15,0c-4.0738,0-4.5846.0172-6.1845.09A11.0134,11.0134,0,0,0,5.1744.7875a7.3519,7.3519,0,0,0-2.6568,1.73,7.3528,7.3528,0,0,0-1.73,2.6568A11.012,11.012,0,0,0,.09,8.8156C.0172,10.4155,0,10.9262,0,15s.0172,4.5846.09,6.1845a11.0114,11.0114,0,0,0,.6973,3.6411,7.3531,7.3531,0,0,0,1.73,2.6569,7.3532,7.3532,0,0,0,2.6568,1.73,11.0159,11.0159,0,0,0,3.6411.6973c1.6.0728,2.1107.09,6.1845.09s4.5846-.0173,6.1845-.09a11.0159,11.0159,0,0,0,3.6411-.6973,7.67,7.67,0,0,0,4.3869-4.387,11.0114,11.0114,0,0,0,.6973-3.6411c.073-1.6.09-2.1106.09-6.1845s-.0172-4.5845-.09-6.1844a11.012,11.012,0,0,0-.6973-3.6412,7.3528,7.3528,0,0,0-1.73-2.6568,7.3519,7.3519,0,0,0-2.6568-1.73A11.0134,11.0134,0,0,0,21.1845.09C19.5846.0172,19.0738,0,15,0" fill="#FFFFFF"/><path d="M15,7.2973A7.7027,7.7027,0,1,0,22.7027,15,7.7028,7.7028,0,0,0,15,7.2973M15,20a5,5,0,1,1,5-5,5,5,0,0,1-5,5" fill="#FFFFFF"/><path d="M24.8071,6.993a1.8,1.8,0,1,1-1.8-1.8,1.8,1.8,0,0,1,1.8,1.8" fill="#FFFFFF"/></g></svg>