<?xml version="1.0" encoding="utf-8"?>
<!-- Generator: Adobe Illustrator 24.2.1, SVG Export Plug-In . SVG Version: 6.00 Build 0)  -->
<svg version="1.1" id="Layer_1" xmlns="http://www.w3.org/2000/svg" xmlns:xlink="http://www.w3.org/1999/xlink" x="0px" y="0px"
	 viewBox="0 0 31.9 31.9" style="enable-background:new 0 0 31.9 31.9;" xml:space="preserve">
<style type="text/css">
	.st0{fill:#F2F3EE;}
	.st1{fill:#FFFFFF;}
</style>
<path class="st1" d="M24.6,31.9c0.8,0.1,1.6-0.1,2.5-0.7c1.2-0.7,2.3-1.9,3-2.9c0.7-1,1.7-2.7,1.8-3.9c0.1-0.9-0.3-1.6-1.5-2.4
	c0,0-3.9-1.9-5.7-2.5c-1.2-0.4-1.7-0.3-2.3,0.5c-0.7,0.8-1.2,1.7-2,2.6c-0.5,0.5-0.8,0.5-1.3,0.3c-1.6-0.7-3.7-2.4-5.6-4.3
	s-3.5-4-4.3-5.6C9,12.4,9,12.1,9.5,11.6c0.8-0.8,1.7-1.3,2.6-2c0.8-0.7,0.9-1.2,0.5-2.3C11.8,5.5,10,1.5,10,1.5
	C9.2,0.3,8.5-0.1,7.6,0C6.3,0.1,4.7,1.1,3.7,1.8c-1,0.7-2.2,1.8-2.9,3C0.1,5.7,0,6.5,0,7.3c0.3,3.9,4.5,9.9,9.6,15
	S20.7,31.6,24.6,31.9"/>
</svg>
